<svg width="416" height="296" viewBox="0 0 416 296" fill="none" xmlns="http://www.w3.org/2000/svg">
<mask id="mask0_346_1530" style="mask-type:alpha" maskUnits="userSpaceOnUse" x="0" y="0" width="416" height="296">
<rect width="416" height="296" fill="#D9D9D9"/>
</mask>
<g mask="url(#mask0_346_1530)">
<path d="M249.198 418.512C249.201 416.742 250.75 415.897 251.794 414.868C259.63 406.757 267.465 398.646 275.301 390.535C277.832 387.914 277.205 386.723 274.412 384.395C265.151 376.768 254.235 375.946 242.976 375.529C234.856 375.265 226.733 374.511 219.62 369.606C215.789 367.025 213.161 363.516 212.226 359.074C211.144 354.23 213.868 350.312 218.739 349.115C222.907 348.051 227.383 347.979 231.126 345.897C233.034 344.834 236.238 343.964 235.904 341.318C235.48 338.039 232.93 335.464 229.9 334.361C220.465 330.967 211.213 327.069 201.453 324.757C198.109 323.943 194.602 322.541 191.837 320.097C189.883 318.34 189.801 316.915 191.587 314.845C194.916 310.952 199.429 309.973 204.145 309.165C212.988 307.712 222.077 308.761 230.917 306.819C234.985 305.915 238.441 304.007 241.505 301.454C244.226 299.306 243.905 296.357 241.542 293.767C236.149 287.814 230.242 282.469 223.549 278.093C220.6 276.155 218.11 273.839 216.277 270.828C213.571 266.383 215.375 262.73 220.593 261.617C225.998 260.488 230.932 262.299 235.736 263.894C250.551 269.023 265.816 272.308 281.363 272.668C289.368 272.904 297.369 270.391 305.199 268.081C312.626 265.917 319.892 263.164 326.78 259.953C336.093 255.56 345.332 250.722 353.697 244.45C360.358 239.412 365.859 233.115 371.65 227.133C379.657 218.82 384.269 208.642 387.884 197.795C391.287 187.568 390.601 177.079 391.31 166.624C391.964 156.401 392.964 146.261 398.62 137.315C400.914 133.658 404.209 133.421 407.622 135.961C411.31 138.629 411.856 142.915 413.923 146.471C414.185 146.901 414.032 147.78 414.393 148.051C416.102 149.566 416.224 152.833 419.16 152.814C421.909 152.81 422.828 150.286 424.14 148.406C430.131 139.846 433.608 130.065 438.112 120.838C440.499 116.044 443.578 111.418 447.094 107.509C459.056 94.2325 471.959 81.8569 487.154 72.115C491.511 69.2657 495.853 66.2293 501.348 65.7333C505.276 65.4057 507.155 66.7178 507.296 70.6608C507.424 74.9062 505.751 78.7745 503.136 81.7421C497.663 87.9236 492.09 94.2641 485.616 99.2861C480.174 103.582 473.76 106.603 468.203 110.87C457.331 119.159 448.847 129.434 444.21 142.476C441.384 150.583 440.574 158.937 440.198 167.518C439.734 180.476 442.678 192.735 445.737 205.022C446.298 207.235 447.189 209.345 448.172 212.088C452.918 207.134 452.597 208.705 446.292 215.295C437.96 367.362 275.957 485.545 253.291 414.744C251.816 416.034 250.485 417.237 249.198 418.512Z" fill="white"/>
<path d="M94.6971 269.474C94.5879 269.709 94.5399 269.906 94.4413 269.882C84.0773 269.973 73.9504 268.66 65.4652 262.314C59.6644 258.031 59.9544 251.468 65.3521 248.602C68.1242 247.082 70.678 247.964 73.1358 249.241C75.6923 250.542 77.6997 252.597 79.5844 254.726C84.0365 259.831 88.4885 264.935 94.1506 268.714C94.4838 268.848 94.5479 269.229 94.6971 269.474Z" fill="#5AB5E3"/>
<path d="M303.394 247.096C290.688 248.296 278.068 247.829 265.348 246.836C264.945 244.364 262.543 243.917 260.987 242.809C253.023 237.084 244.038 233.302 234.567 230.771C228.178 229.08 221.619 227.713 216.086 223.812C211.872 220.871 208.15 217.41 208.252 211.547C208.475 202.747 217.689 197.137 226.012 198.385C231.965 199.24 237.169 202.239 242.499 204.722C251.67 209.051 260.533 214.082 270.435 216.718C274.982 217.915 279.535 218.52 284.094 216.479C290.143 213.751 292.306 207.294 289.031 201.431C283.971 192.397 277.979 184.002 272.33 175.326C270.364 172.338 269.031 169.184 268.674 165.583C268.162 161.123 269.622 157.37 273.523 155.215C277.799 152.832 282.162 153.847 286.18 156.467C291.722 160.142 295.2 165.735 299.491 170.612C305.993 178.035 312.408 185.437 320.384 191.301C320.957 191.76 321.626 192.014 322.273 192.354C324.228 193.514 326.284 193.877 328.136 192.456C330.095 190.97 330.607 188.675 330.269 186.311C329.682 181.969 327.131 178.382 324.785 174.891C311.926 155.699 301.834 135.263 297.781 112.324C296.097 102.923 295.961 93.534 300.4 84.6637C303.893 77.6174 310.293 74.3815 317.114 76.1768C322.005 77.4575 325.19 80.8789 327.317 85.4581C330.404 92.0963 331.869 99.2075 333.496 106.221C334.591 110.914 335.332 115.75 337.941 120.035C339.343 122.339 341.167 123.284 343.585 122.914C346.369 122.541 349.15 121.802 350.237 118.644C351.6 114.731 350.682 110.81 349.968 106.986C347.084 91.6338 341.697 76.997 336.697 62.2717C334.866 56.8516 333.561 51.3314 335.072 45.4918C336.688 39.2212 343.534 33.2181 349.524 33.1687C354.558 33.1147 360.659 38.4319 361.111 43.5167C362.265 55.6638 362.613 67.9344 364.433 79.9697C366.682 95.1214 368.212 110.418 374.628 124.575C376.002 127.556 377.272 130.968 380.894 132.214C382.748 132.847 384.167 132.645 385.653 131.226C391.436 125.649 393.184 118.27 394.814 110.816C395.734 106.658 396.773 102.575 398.587 98.6803C399.828 96.0155 401.936 94.2917 404.764 94.1121C407.333 93.8696 408.691 95.9799 410.112 97.8315C411.815 100.026 410.114 102.455 411.656 104.747C399.556 111.526 394.408 122.812 389.54 135.321C387.065 141.747 386.453 148.581 385.496 155.332C384.302 163.622 383.28 171.954 381.601 180.172C379.999 180.193 379.302 178.928 378.51 177.868C375.656 174.025 373.951 169.777 373.082 165.092C372.625 162.654 372.276 160.15 371.325 157.865C369.282 152.941 364.863 151.593 360.407 154.526C356.252 157.349 353.76 161.216 352.447 166.054C350.547 173.305 351.304 180.7 350.965 188.103C350.788 192.396 350.665 196.656 348.744 200.616C346.271 205.72 342.616 207.798 336.989 207.479C331.985 207.221 327.136 205.768 322.104 206.187C320.567 206.316 319.03 206.444 317.527 206.991C314.222 208.196 312.559 210.53 312.55 214.133C312.55 215.822 312.69 217.499 312.518 219.146C312.176 222.805 309.707 225.263 306.008 225.459C302.449 225.643 298.932 225.655 295.422 225.075C292.429 224.621 289.405 224.48 286.452 225.176C282.392 226.106 281.069 229.481 283.254 233.07C284.363 234.892 285.984 236.108 287.873 237.16C292.353 239.573 297.056 241.629 301.407 244.194C302.53 244.832 304.328 245.132 303.394 247.096Z" fill="#C9E2F3"/>
<path d="M284.426 96.3821C279.156 92.2801 273.403 91.6649 267.989 90.0872C265.116 89.2318 262.402 88.363 260.136 86.2973C258.179 84.4635 257.747 82.3737 258.853 80.1878C259.983 77.9032 261.857 76.4263 264.813 76.7273C270.491 77.22 273.914 81.1862 277.164 85.0058C279.942 88.1883 282.893 91.5175 284.426 96.3821Z" fill="#C9E2F3"/>
<path d="M258.764 181.077C259.793 182.215 260.995 183.5 262.075 184.859C262.398 185.251 262.464 186.051 262.307 186.483C261.979 187.186 261.299 186.76 260.708 186.616C254.246 184.836 247.747 182.994 241.187 181.19C239.571 180.745 238.58 179.668 237.428 178.605C236.375 177.565 235.924 176.411 236.457 175.078C237.014 173.647 238.179 172.938 239.816 172.866C247.397 172.62 253.278 175.93 258.764 181.077Z" fill="#C8E2F2"/>
<path d="M390.288 101.592C387.936 99.6625 387.55 96.9569 386.931 94.5605C385.718 89.6692 385.821 84.7324 387.674 79.9075C388.326 78.0814 389.401 76.6712 391.52 76.9776C393.799 77.2706 394.279 79.1632 394.266 80.9359C394.301 86.3764 392.451 91.6199 391.575 96.9432C391.314 98.4467 390.757 99.8782 390.288 101.592Z" fill="#C9E2F3"/>
<path d="M290.72 154.481C287.894 151.495 287.632 145.269 290.325 142.789C292.001 141.264 293.931 140.846 295.653 142.57C298.863 145.91 299.066 152.593 296.19 155.184C293.975 157.205 292.282 156.219 290.72 154.481Z" fill="#C9E2F3"/>
<path d="M380.02 67.1649C378.628 65.1552 377.359 63.0708 377.367 60.4611C377.394 58.8484 377.444 57.137 379.139 56.6091C380.896 56.0438 382.759 56.7581 383.876 58.1788C385.428 60.1752 386.145 62.5955 386.001 65.1199C385.911 66.3515 385.538 67.671 384.002 68.1856C382.43 68.6388 381.257 68.0925 380.02 67.1649Z" fill="#C9E3F3"/>
<path d="M284.774 136.839C286.387 138.798 286.659 140.901 285.06 142.967C284.303 143.932 283.319 144.111 282.28 143.231C280.992 142.083 280.68 137.567 281.917 136.562C282.945 135.768 283.918 135.847 284.774 136.839Z" fill="#CAE2F3"/>
<path d="M389.196 44.6886C388.266 45.5071 387.378 45.2912 386.474 44.4969C385.187 43.3481 384.648 41.9114 385.685 40.4399C386.466 39.3762 387.527 39.7387 388.492 40.4956C389.742 41.5831 390.137 43.6116 389.196 44.6886Z" fill="#CBE2F0"/>
<path d="M296.97 251.004C296.61 248.619 294.283 248.523 292.763 247.683C287.933 244.994 282.833 242.553 277.941 239.901C274.001 237.846 271.303 233.69 271.788 230.622C272.38 226.901 274.645 225.102 279.049 224.605C285.913 223.872 292.721 225.945 299.66 225.334C304.138 224.961 307.163 222.614 306.531 218.126C304.432 203.774 314.676 202.243 324.79 203.396C329.052 203.911 333.256 204.881 337.465 204.755C344.012 204.466 348.146 200.353 349.614 193.241C351.08 185.71 350.538 178.057 350.71 170.474C350.857 164.503 351.496 158.652 354.033 153.157C355.939 148.972 358.935 145.888 362.736 143.574C367.088 140.924 372.132 142.307 374.598 146.772C377.2 151.322 377.16 156.64 378.656 161.443C380.203 166.467 382.778 170.698 386.372 174.392C383.976 186.606 380.2 198.485 373.881 209.222C369.424 216.809 363.683 223.665 356.617 229.312C344.028 239.413 329.453 245.009 313.878 248.273C308.482 249.625 302.829 250.967 296.97 251.004Z" fill="#5AB5E4"/>
<path d="M345.105 182.795C341.629 180.122 338.275 177.374 338.256 172.512C338.259 170.997 338.509 169.753 339.61 168.662C340.503 167.783 341.348 167.1 342.742 167.596C344.136 168.091 344.39 169.198 344.299 170.429C344.19 174.529 343.921 178.642 345.105 182.795Z" fill="#5AB5E4"/>
<path d="M297.427 215.605C298.653 216.791 299.992 218.161 298.192 219.76C296.479 221.224 294.946 220.224 293.546 218.892C292.245 217.583 291.213 216.026 292.607 214.589C294.356 212.769 296.051 214.173 297.427 215.605Z" fill="#5AB5E4"/>
<path d="M426.026 37.8957C429.644 36.5769 433.319 35.0274 437.116 34.4847C443.861 33.6208 447.471 37.6134 445.916 44.259C444.221 51.4812 439.334 57.0112 435.27 62.9245C427.783 73.8689 419.792 84.6295 414.965 97.1977C413.039 102.104 411.734 107.222 411.235 112.537C411.086 113.905 411.167 115.33 411.391 116.667C411.722 118.824 412.112 121.239 414.693 121.928C417.043 122.561 418.617 121.111 420.191 119.662C425.742 114.415 430.439 108.411 435.092 102.336C447.054 86.7999 458.698 71.0642 474.83 59.4739C488.756 49.4235 503.637 44.4911 520.494 51.5217C529.543 55.249 535.516 61.8316 537.493 71.5347C539.379 80.6051 533.582 90.128 523.702 93.5887C514.769 96.669 505.63 99.0886 496.653 102.097C473.242 109.963 460.183 127.248 454.892 150.514C451.742 164.223 455.178 176.968 464.302 187.921C466.057 189.996 469.801 192.434 465.042 195.429C459.587 200.027 455.031 205.455 450.069 210.539C447.853 212.871 446.771 212.546 445.889 209.645C440.055 191.186 436.84 172.509 440.183 152.984C443.414 133.92 453.989 119.818 468.915 108.667C475.333 103.876 482.548 100.072 488.66 94.7792C493.398 90.6176 497.73 86.1131 501.701 81.3375C504.029 78.5445 505.678 75.2809 505.74 71.5093C505.805 68.227 504.415 66.9118 501.12 67.1489C498.502 67.3674 495.93 68.1468 493.593 69.4717C476.126 79.5162 461.661 93.0389 448.284 107.865C441.982 114.944 437.603 123.407 434.004 132.182C431.411 138.575 428.138 144.497 424.158 150.065C420.565 155.298 417.354 155.19 414.009 149.857C412.7 147.706 411.721 145.452 410.842 143.04C410.359 141.762 409.76 140.456 408.918 139.396C404.972 134.528 401.288 134.609 398.271 139.983C393.646 148.203 392.64 157.364 392.282 166.622C391.955 173.993 392.046 181.406 391.071 188.681C390.056 196.374 387.556 203.889 383.916 210.822C373.08 231.273 356.636 245.903 336.236 256.455C326.667 261.397 316.818 265.231 306.766 268.895C288.628 275.417 270.559 274.627 252.178 270.096C243.528 267.993 235.174 264.923 226.468 263.051C225.545 262.826 224.551 262.646 223.572 262.652C220.723 262.814 217.818 263.207 216.441 266.109C215.091 268.896 217.248 270.825 218.801 272.73C220.512 274.734 222.61 276.404 224.808 277.916C231.067 282.064 236.784 286.935 241.672 292.705C245.603 297.386 244.733 300.961 239.488 304.45C232.78 308.926 225.097 309.379 217.498 309.486C211.928 309.536 206.464 310.406 200.912 311.133C199.531 311.285 198.182 311.812 196.948 312.367C194.666 313.462 192.026 314.774 191.914 317.495C191.846 320.288 194.729 320.989 196.808 321.983C200.994 323.856 205.336 325.34 209.862 326.318C217.3 327.882 223.874 331.74 231 334.084C231.23 334.14 231.476 334.383 231.751 334.511C234.139 336.496 236.9 338.45 236.692 341.82C236.468 345.002 233.394 346.087 230.941 347.384C227.584 349.133 223.685 349.345 220.107 350.246C213.539 351.887 211.299 357.083 214.691 362.977C218.781 370.018 225.62 372.536 233.069 373.798C241.7 375.224 250.546 374.261 259.196 376.364C265.078 377.794 270.505 380.091 275.293 383.759C278.114 385.972 278.286 388.029 275.755 390.651C267.748 398.965 259.698 407.207 251.691 415.52C250.718 416.505 249.543 417.319 249.02 418.719C248.191 419.616 247.246 420.486 246.174 421.63C244.74 417.983 245.076 414.34 244.449 410.889C241.147 392.069 229.884 379.864 213.158 377.568C206.07 376.577 199.066 377.5 192.065 378.913C176.181 382.196 162.601 390.071 149.548 399.295C135.606 409.159 122.637 420.297 109.45 431.077C105.112 434.602 100.336 437.411 94.6574 438.412C86.0452 439.921 79.4336 434.71 79.2614 425.874C79.0737 416.85 83.4307 409.481 88.9878 402.953C104.874 384.34 124.737 370.97 146.446 360.308C156.835 355.261 167.457 350.759 177.905 345.97C180.302 344.904 182.683 343.651 184.862 342.226C190.566 338.361 190.404 335.512 184.665 331.734C165.915 319.174 145.33 316.673 123.549 320.599C100.243 324.765 79.0171 334.445 58.9289 346.479C44.5758 355.02 30.2943 363.519 13.6341 366.98C7.45321 368.286 1.29717 368.988 -4.95247 368.568C-13.3186 368.06 -20.6344 365.243 -24.8867 357.613C-29.3135 349.696 -26.9888 341.894 -22.6162 334.712C-16.4485 324.669 -7.68715 317.271 2.07483 311.033C21.2684 298.661 42.7348 292.764 64.9338 288.879C89.8073 284.544 115.008 284.137 140.128 284.565C148.348 284.67 156.536 284.402 164.74 284.32C168.842 284.279 172.826 283.721 176.616 282.199C181.497 280.21 182.447 275.8 178.738 271.966C172.999 265.929 165.353 263.215 157.934 260.067C142.778 253.572 126.763 249.861 110.975 245.717C95.3022 241.601 80.3088 235.695 67.4472 225.544C61.3125 220.632 56.5243 214.704 55.1491 206.796C53.3996 196.66 59.6017 187.48 70.7135 182.975C82.5141 178.149 94.4555 179.525 106.31 183.019C123.298 188.004 139.04 196.107 154.965 203.705C172.854 212.269 190.475 221.685 210.263 225.458C215.926 226.529 221.252 225.274 227 226C232 226.5 235.002 227.198 238.631 227.347C252.021 228.038 265.509 228.081 278.859 226.93C296.03 224.631 312.821 221.385 328.649 213.812C342.884 207.013 354.509 197.38 363.682 184.525C372.44 172.119 377.273 158.269 380.922 143.766C381.342 142.036 381.835 140.262 382.212 138.46C385.446 122.146 386.576 105.441 389.925 89.1547C393.96 69.7978 403.139 53.4015 419.153 41.2937C421.328 39.3797 423.392 37.927 426.026 37.8957Z" fill="white"/>
</g>
</svg>
